<?xml version="1.0" encoding="UTF-8"?>
<svg width="24px" height="24px" viewBox="0 0 24 24" version="1.1" xmlns="http://www.w3.org/2000/svg" xmlns:xlink="http://www.w3.org/1999/xlink">
    <!-- Generator: Sketch 52.5 (67469) - http://www.bohemiancoding.com/sketch -->
    <title>viewIconOasisWeb3</title>
    <desc>Created with Sketch.</desc>
    <defs>
        <polygon id="path-1" points="0 -0.000266666667 24 -0.000266666667 24 24.1253333 0 24.1253333"></polygon>
    </defs>
    <g id="viewIconOasisWeb3" stroke="none" stroke-width="1" fill="none" fill-rule="evenodd">
        <mask id="mask-2" fill="white">
            <use xlink:href="#path-1"></use>
        </mask>
        <g id="Clip-2"></g>
        <path d="M21.5649333,4.7536 C19.7484,2.4296 17.0816,0.9584 14.1324,0.9584 C8.42893333,0.9584 4.25653333,6.2584 4.25653333,12.0001333 C4.25653333,16.0029333 6.9128,18.9985333 9.8676,18.9985333 C10.1436,18.9985333 10.4176,18.9733333 10.688,18.9234667 C8.70866667,17.48 7.44253333,14.8510667 7.44253333,12.0001333 C7.44253333,7.4604 10.5133333,3.9228 14.1324,3.9228 C18.0797333,3.9228 20.8241333,7.84253333 20.8241333,12.0001333 C20.8141333,15.0710667 19.7193333,18.124 17.7929333,20.3765333 C16.1113333,22.3428 13.9336,23.5897333 11.5394667,23.9857333 C11.5394667,23.9857333 11.7390667,24.0002667 12,24.0002667 C18.6273333,24.0002667 24,18.6277333 24,12.0001333 C24,9.27746667 23.0928,6.7672 21.5649333,4.7536 Z M19.7434667,12.0001333 C19.7434667,7.99733333 17.0872,5.00186667 14.1324,5.00186667 C13.8562667,5.00186667 13.5822667,5.02693333 13.312,5.0768 C15.2914667,6.52026667 16.5574667,9.1492 16.5574667,12.0001333 C16.5574667,16.5398667 13.4866667,20.0776 9.8676,20.0776 C5.9204,20.0776 3.17586667,16.1577333 3.17586667,12.0001333 C3.18586667,8.92933333 4.2808,5.87626667 6.20706667,3.62386667 C7.88866667,1.65746667 10.0664,0.410533333 12.4604,0.0145333333 C12.4604,0.0145333333 12.2609333,0 12,0 C5.37253333,0 0,5.37266667 0,12.0001333 C0,14.7226667 0.9072,17.2332 2.43506667,19.2466667 C4.2516,21.5708 6.9184,23.0418667 9.8676,23.0418667 C15.5710667,23.0418667 19.7434667,17.742 19.7434667,12.0001333 Z" id="Fill-1" fill="#DE4F35" mask="url(#mask-2)"></path>
    </g>
</svg>