<?xml version="1.0" encoding="UTF-8"?>
<svg width="24px" height="24px" viewBox="0 0 24 24" version="1.1" xmlns="http://www.w3.org/2000/svg" xmlns:xlink="http://www.w3.org/1999/xlink">
    <!-- Generator: Sketch 53.2 (72643) - https://sketchapp.com -->
    <title>viewIconOasisSmartContract Copy 7</title>
    <desc>Created with Sketch.</desc>
    <g id="viewIconOasisSmartContract-Copy-7" stroke="none" stroke-width="1" fill="none" fill-rule="evenodd">
        <path d="M10,23 L5,23 C3.9,23 3,21.9 3,20.5555556 L3,3.44444444 C3,2.1 3.9,1 5,1 L19,1 C20.1,1 21,2.1 21,3.44444444 L21,9 L19,9 L19,3 L5,3 L5,21 L10,21 L10,23 Z" id="Combined-Shape" fill="#948FFE"></path>
        <rect id="Rectangle" fill="#948FFE" x="7" y="5" width="10" height="2"></rect>
        <rect id="Rectangle" fill="#948FFE" x="7" y="9" width="5" height="2"></rect>
        <rect id="Rectangle" fill="#948FFE" x="7" y="13" width="3" height="2"></rect>
        <rect id="Rectangle" fill="#948FFE" x="7" y="17" width="3" height="2"></rect>
        <path d="M13,14 L13,12.5 C13,10.5670034 14.5670034,9 16.5,9 C18.4329966,9 20,10.5670034 20,12.5 L20,14 L21,14 C21.5522847,14 22,14.4477153 22,15 L22,22 C22,22.5522847 21.5522847,23 21,23 L12,23 C11.4477153,23 11,22.5522847 11,22 L11,15 C11,14.4477153 11.4477153,14 12,14 L13,14 Z M15,14 L18,14 L18,12.5 C18,11.6715729 17.3284271,11 16.5,11 C15.6715729,11 15,11.6715729 15,12.5 L15,14 Z M13,16 L13,21 L20,21 L20,16 L13,16 Z" id="Combined-Shape" fill="#948FFE"></path>
    </g>
</svg>